<?xml version="1.0" encoding="utf-8"?>
<!-- Generator: Adobe Illustrator 22.0.0, SVG Export Plug-In . SVG Version: 6.00 Build 0)  -->
<svg version="1.1" id="Layer_1" xmlns="http://www.w3.org/2000/svg" xmlns:xlink="http://www.w3.org/1999/xlink" x="0px" y="0px"
	 viewBox="0 0 160.3 176" style="enable-background:new 0 0 160.3 176;" xml:space="preserve">
<style type="text/css">
	.st0{fill:#2DBD6B;}
	.st1{fill:#6D695E;}
</style>
<title>Original Logo</title>
<path class="st0" d="M118,114.6c18.9-20.7,17.4-52.8-3.3-71.7C98,27.7,73.2,25.3,54,37.2l4.1,6.7c20.2-12.4,46.6-6.2,59,14
	s6.2,46.6-14,59c-3.8,2.4-8,4.1-12.4,5.2v8C101.2,128,110.8,122.6,118,114.6z"/>
<path class="st0" d="M32.3,64.8c-8.6,26.7,6.1,55.3,32.7,63.9c0,0,0,0,0,0c1.5,0.5,3,0.9,4.5,1.2v-8c-22.9-6.1-36.5-29.7-30.4-52.6
	c0.2-0.7,0.4-1.4,0.6-2.1L32.3,64.8z"/>
<path class="st0" d="M73.7,15.7c-35.6,3.6-61.5,35.3-58,70.9c2.6,25.9,20.5,47.8,45.4,55.4c2.8,0.9,5.7,1.5,8.6,2v-8
	c-2.1-0.4-4.2-0.9-6.2-1.5c-30-9.3-46.8-41.2-37.5-71.2s41.2-46.8,71.2-37.5c7.2,2.2,13.9,5.9,19.7,10.7l5-6
	C108.4,19.3,91,14,73.7,15.7z"/>
<path class="st0" d="M160,74c-3.4-44.1-41.9-77.1-86-73.7C29.9,3.6-3.1,42.1,0.2,86.3c2.9,37.7,31.8,68.3,69.3,73.3v-7.9
	c-39.5-5.8-66.7-42.6-60.9-82c5.8-39.5,42.6-66.7,82-60.9c39.5,5.8,66.7,42.6,60.9,82c-0.6,4.2-1.6,8.3-3,12.4l7.4,2.5
	C159.5,95.4,160.8,84.7,160,74z"/>
<path class="st0" d="M90.7,151.6v7.9c9.1-1.2,18-4,26.2-8.2l-3.6-7C106.2,148,98.6,150.5,90.7,151.6z"/>
<path class="st0" d="M136.8,74.4c2.9,29.4-17.1,56.1-46.1,61.6v8c33.7-5.6,57.3-36.4,53.9-70.4L136.8,74.4z"/>
<polygon class="st1" points="109.5,85 104,79.5 84.1,99.4 84.1,49 76.2,49 76.2,72.1 54.8,55.1 49.9,61.3 76.2,82 76.2,176 
	84.1,176 84.1,110.4 "/>
</svg>
